# xmcd
#
# Track frame offsets:
#	150
#	14551
#	49082
#	81970
#	107672
#	132893
#	159620
#	185438
#	214180
#	243509
#	275697
#	294275
#
# Disc length: 4569 seconds
#
# Revision: 0
# Processed by: cddbd v1.5.2PL0 Copyright (c) Steve Scherf et al.
# Submitted via: audiograbber 1.83.01
#
DISCID=ad11d70c
DTITLE=Elliot Murphy - Alive In Paris
DYEAR=2009
DGENRE=Blues
TTITLE0=Crépuscule
TTITLE1=Sonny
TTITLE2=Green River
TTITLE3=Pneumonia Alley
TTITLE4=Ophelia
TTITLE5=Canaries In The Mind
TTITLE6=You Never Know That You're In For
TTITLE7=Last Of The Rock Stars
TTITLE8=On Elvis Presley's Birthday
TTITLE9=A Touch Of Kindness
TTITLE10=And General Robert E. Lee
TTITLE11=Diamonds By The Yard
EXTD=
EXTT0=
EXTT1=
EXTT2=
EXTT3=
EXTT4=
EXTT5=
EXTT6=
EXTT7=
EXTT8=
EXTT9=
EXTT10=
EXTT11=
PLAYORDER=
